<svg xmlns="http://www.w3.org/2000/svg" viewBox="0 0 36 36" fill="none">
  <path fill="#000" d="M18 2C9.16 2 2 9.16 2 18s7.16 16 16 16 16-7.16 16-16S26.84 2 18 2zm-1.6 12.08c.93-3.18 5.12-2.78 5.57-.17.47 2.72 3.44 2.78 5.13 2.14-.94 1.56-2.32 2.69-4.07 3.12-1.75.43-3.57-.44-4.96-1.36-2.78 3.15-7.62 2.45-10.47-.74.37-.73.79-1.42 1.26-2.06 2.3 2.36 5.68 2.88 7.54.07zm7.9 7.2c-.47 0-1.15-.46-1.72-.97-.83.53-2.54 1.6-4.41.53-1.86-1.07-3.17-3.45-2.81-5.9 2.12 3.27 5.86 2.8 7.26 2.2 1.22-.52 2.18-1.45 3.3-1.98.61.74 1.2 1.48 1.75 2.22-2.47.89-3.82 2.98-3.37 4.9z"/>
  <path fill="url(#gradient)" d="M18 28a7.63 7.63 0 0 1-5-2c-1.4 2.1-.35 4.35.6 5.55.14.17.41.07.47-.15.44-1.8 2.93-1.22 2.93.6 0 2.28.87 3.4 1.72 3.81.34.16.59-.2.49-.56-.31-1.05-.29-2.46 1.29-3.25 3-1.5 3.17-4.83 2.5-6-.67.67-2.6 2-5 2Z"/>
  <defs>
    <linearGradient id="gradient" x1="16" x2="16" y1="32" y2="24" gradientUnits="userSpaceOnUse">
      <stop stop-color="#000"/>
      <stop offset="1" stop-color="#000" stop-opacity="0"/>
    </linearGradient>
  </defs>
  <style>
    @media (prefers-color-scheme:dark){:root{filter:invert(100%)}}
  </style>
</svg>
